<svg xmlns="http://www.w3.org/2000/svg" viewBox="0 0 229.82 362.8"><defs><style>.cls-1{fill:#d1d3d4;}.cls-2{fill:#fff;}</style></defs><title>ns-logo-wht</title><g id="Layer_2" data-name="Layer 2"><g id="Layer_1-2" data-name="Layer 1"><polygon class="cls-1" points="39.56 105.59 39.56 331.68 10.87 254.33 10.87 25.95 200.84 262.68 200.84 57.06 229.54 119.06 229.54 347.44 39.56 105.59"/><path class="cls-1" d="M156.61,336.74q-15.77,18.26-41.74,24Q82.39,367.94,53.3,350a85.24,85.24,0,0,1-33.24-37c-7.23-15.47-10.49-35.73-9.18-60.78l28.69.36c0,40.36,6.87,60.2,26.15,72.1a57.45,57.45,0,0,0,26.79,8.58A48,48,0,0,0,118.6,328c7.1-3.75,13.94-7.46,20.4-13.52"/><path class="cls-1" d="M83.79,36.64q15.77-18.25,41.74-24Q158,5.46,187.11,23.41a85.2,85.2,0,0,1,33.24,37c7.23,15.47,10.49,35.73,9.19,60.78l-28.69-.35c0-40.36-6.87-60.2-26.15-72.1a57.32,57.32,0,0,0-26.79-8.58,48,48,0,0,0-26.09,5.24c-7.1,3.75-13.94,7.46-20.4,13.51"/><polygon class="cls-2" points="28.98 95 28.98 321.09 0.28 243.74 0.28 15.36 190.26 252.09 190.26 46.48 218.95 108.48 218.95 336.85 28.98 95"/><path class="cls-2" d="M146,326.15q-15.77,18.26-41.74,24-32.48,7.19-61.58-10.78a85.24,85.24,0,0,1-33.24-37C2.24,286.89-1,266.62.28,241.58l28.69.36c0,40.36,6.87,60.2,26.15,72.1a57.45,57.45,0,0,0,26.79,8.58A48,48,0,0,0,108,317.37c7.1-3.75,13.94-7.46,20.4-13.52"/><path class="cls-2" d="M73.21,26.06Q89,7.81,114.95,2.05q32.48-7.18,61.58,10.77a85.2,85.2,0,0,1,33.24,37C217,65.32,220.26,85.58,219,110.63l-28.69-.35c0-40.36-6.87-60.2-26.15-72.1a57.32,57.32,0,0,0-26.79-8.58,48,48,0,0,0-26.09,5.24c-7.1,3.75-13.94,7.46-20.4,13.51"/></g></g></svg>